# xmcd
# 
# Track frame offsets:
#     150
#     18895
#     34245
#     48632
#     63214
#     78072
#     95152
#     107467
#     122582
#     138947
# 
# Disc length: 2026
# 
# Revision: 6
# Processed by: cddbd v1.5.2PL0 Copyright (c) Steve Scherf et al.
# Submitted via: BonkEnc v1.0.8
# 
DISCID=7707e80a
DTITLE=Tanya Tucker - Love Songs
DYEAR=1996
DGENRE=Country
TTITLE0=Two Sparrows In a Hurricane
TTITLE1=Hangin' In
TTITLE2=I'll Take Today
TTITLE3=I'm In Love and He's In Dallas
TTITLE4=As Long As There's a Heartbeat
TTITLE5=Love Me Like You Used To
TTITLE6=Strong Enough to Bend
TTITLE7=Your Love Amazes Me
TTITLE8=Right About Now
TTITLE9=Would You Lay With Me (In a Field of Stone)
EXTD=YEAR: 1996
EXTT0=
EXTT1=
EXTT2=
EXTT3=
EXTT4=
EXTT5=
EXTT6=
EXTT7=
EXTT8=
EXTT9=
PLAYORDER=
